<?xml version="1.0" encoding="UTF-8"?>
<svg version="1.1" xmlns="http://www.w3.org/2000/svg" width="500" height="500">
<path d="M0 0 C165 0 330 0 500 0 C500 165 500 330 500 500 C335 500 170 500 0 500 C0 335 0 170 0 0 Z " fill="#ECEBF6" transform="translate(0,0)"/>
<path d="M0 0 C165 0 330 0 500 0 C500 165 500 330 500 500 C335 500 170 500 0 500 C0 335 0 170 0 0 Z M243.37109375 25.53515625 C242.43201172 26.08945312 241.49292969 26.64375 240.52539062 27.21484375 C239.50638672 27.82457031 238.48738281 28.43429688 237.4375 29.0625 C235.24911688 30.35617773 233.06030004 31.649122 230.87109375 32.94140625 C229.73655762 33.61316895 228.60202148 34.28493164 227.43310547 34.97705078 C221.97834067 38.19125794 216.48897199 41.34469009 211 44.5 C195.63745346 53.35043786 180.27819714 62.2110689 165.0625 71.3125 C164.44737549 71.67972168 163.83225098 72.04694336 163.19848633 72.42529297 C160.44368754 74.00387761 160.44368754 74.00387761 158 76 C157.91348389 77.41570123 157.89295096 78.835595 157.90234375 80.25390625 C157.90556641 81.10791016 157.90878906 81.96191406 157.91210938 82.84179688 C157.92048828 83.73962891 157.92886719 84.63746094 157.9375 85.5625 C157.94201172 86.46419922 157.94652344 87.36589844 157.95117188 88.29492188 C157.96299775 90.53001314 157.9794778 92.76497437 158 95 C156.96359375 94.43410156 155.9271875 93.86820312 154.859375 93.28515625 C153.48971023 92.54403627 152.11991151 91.8031638 150.75 91.0625 C150.06808594 90.68931641 149.38617188 90.31613281 148.68359375 89.93164062 C147.68779297 89.39506836 147.68779297 89.39506836 146.671875 88.84765625 C146.0644043 88.51773682 145.45693359 88.18781738 144.83105469 87.84790039 C142.86622087 86.93805135 141.14128853 86.33631537 139 86 C136.06965711 87.26571304 136.06965711 87.26571304 132.9375 89.25 C131.67984368 89.99896024 130.42202225 90.74764328 129.1640625 91.49609375 C128.49149414 91.9019873 127.81892578 92.30788086 127.12597656 92.72607422 C123.38254233 94.96921154 119.59362667 97.1337363 115.8125 99.3125 C114.18980353 100.25208515 112.56741124 101.19219581 110.9453125 102.1328125 C110.13094727 102.60493164 109.31658203 103.07705078 108.47753906 103.56347656 C107.65995117 104.0375293 106.84236328 104.51158203 106 105 C87.859375 115.51827331 87.859375 115.51827331 80.3125 119.8125 C79.29438232 120.46162354 78.27626465 121.11074707 77.22729492 121.77954102 C73.93124555 123.71203379 70.78361781 124.62243836 67.08862305 125.55981445 C59.75671447 127.88877612 52.78758254 130.92366805 49 138 C44.18896228 153.70790693 46.65888532 172.40132787 47.35205078 188.56243896 C47.59885945 194.92254768 47.70744037 201.28490739 47.828125 207.6484375 C48.08452216 220.10495077 48.49332517 232.55132871 49 245 C55.435 248.465 55.435 248.465 62 252 C58.49782053 254.80174358 56.49325209 256.30624748 52.7442627 258.10636902 C50.29638359 259.62525686 49.20702217 260.38359172 48.28160095 263.13903236 C48.01206006 265.88980086 48.01013956 268.5351277 48.09179688 271.2980957 C48.09062866 272.33270432 48.08946045 273.36731293 48.08825684 274.43327332 C48.09382512 277.84881422 48.15602273 281.2608515 48.21875 284.67578125 C48.23367287 287.04516187 48.24505967 289.41456719 48.25305176 291.78398132 C48.28358126 298.01698087 48.36215476 304.24848635 48.45068359 310.480896 C48.53255549 316.84187609 48.56906633 323.20309789 48.609375 329.56445312 C48.69514536 342.0436248 48.83166496 354.52168811 49 367 C49.59628299 367.34070683 50.19256598 367.68141367 50.80691814 368.03244495 C53.54601381 369.59753716 56.28509198 371.16265998 59.02416992 372.7277832 C60.43088581 373.53155773 60.43088581 373.53155773 61.8660202 374.35157013 C67.11593309 377.35142828 72.36519581 380.35241473 77.61328125 383.35546875 C92.82377734 392.07181144 92.82377734 392.07181144 108.09423828 400.68237305 C112.04616182 402.89055141 115.97602339 405.13427269 119.8984375 407.39453125 C120.93701904 407.98983643 121.97560059 408.5851416 123.0456543 409.19848633 C125.09981348 410.3763277 127.15090262 411.55954374 129.19848633 412.7487793 C130.13716553 413.28543213 131.07584473 413.82208496 132.04296875 414.375 C132.87852295 414.85710937 133.71407715 415.33921875 134.57495117 415.8359375 C137.86117836 417.41337949 140.48602775 418.52982676 144.03637695 417.28735352 C144.68050537 416.90506592 145.32463379 416.52277832 145.98828125 416.12890625 C146.69404297 415.71962891 147.39980469 415.31035156 148.12695312 414.88867188 C148.84818359 414.45103516 149.56941406 414.01339844 150.3125 413.5625 C151.42334961 412.9118457 151.42334961 412.9118457 152.55664062 412.24804688 C154.37874668 411.17829429 156.19043935 410.09083974 158 409 C158 414.61 158 420.22 158 426 C160.02125 427.155 162.0425 428.31 164.125 429.5 C167.35384115 431.34505208 170.58268229 433.19010417 173.81152344 435.03515625 C174.38676758 435.36386719 174.96201172 435.69257813 175.5546875 436.03125 C189.49999999 444 189.49999999 444 191.25054932 445.00033569 C192.41535988 445.66592722 193.58019543 446.33147502 194.74505615 446.99697876 C197.69032924 448.67973458 200.63514271 450.36328571 203.57910156 452.04833984 C211.90922713 456.8149801 220.26122668 461.5417542 228.62890625 466.2421875 C229.57121094 466.77328125 230.51351562 467.304375 231.484375 467.8515625 C232.40154297 468.36750977 233.31871094 468.88345703 234.26367188 469.41503906 C237.81740046 471.47346215 241.27610329 473.67434887 244.71972656 475.91162109 C247.40003744 477.19093864 249.06187409 477.33033936 252 477 C254.49155735 475.70531085 256.7760875 474.389175 259.125 472.875 C264.33468467 469.58820324 269.61546037 466.52972363 275.03662109 463.60253906 C280.29812008 460.75722028 285.52139934 457.84270149 290.75 454.9375 C291.32938324 454.61562714 291.90876648 454.29375427 292.50570679 453.96212769 C298.80534372 450.46130195 305.09892366 446.95005771 311.37890625 443.4140625 C312.37422363 442.85364258 313.36954102 442.29322266 314.39501953 441.71582031 C316.3211661 440.62428353 318.24284116 439.52481355 320.15966797 438.41699219 C324.2121921 436.08085668 328.21201605 433.84360699 332.50390625 431.9765625 C336.11856256 430.34604533 339.16148167 428.85252418 342 426 C343.80905616 420.81502027 343.45795182 415.3907471 343 410 C343.95261719 410.58910156 344.90523438 411.17820312 345.88671875 411.78515625 C347.15318651 412.5450369 348.42013941 413.30410939 349.6875 414.0625 C350.31333984 414.45244141 350.93917969 414.84238281 351.58398438 415.24414062 C355.24649077 417.45714802 355.24649077 417.45714802 359.40014648 417.77124023 C362.25174805 416.92531955 364.56086938 415.77819553 367.1484375 414.3125 C368.11233398 413.77109375 369.07623047 413.2296875 370.06933594 412.671875 C371.03645508 412.12015625 372.00357422 411.5684375 373 411 C373.87172852 410.51015625 374.74345703 410.0203125 375.64160156 409.515625 C378.30675502 408.01742011 380.96626667 406.50956577 383.625 405 C392.04977263 400.22709594 400.48723607 395.47762695 408.9375 390.75 C409.9905835 390.1607373 411.04366699 389.57147461 412.12866211 388.96435547 C414.15932922 387.82810136 416.19000903 386.69186995 418.22070312 385.55566406 C422.04472661 383.41523208 425.8670789 381.27185467 429.6875 379.125 C430.78449219 378.50882812 431.88148438 377.89265625 433.01171875 377.2578125 C436.76591724 375.13948165 440.50707717 372.99832946 444.24926758 370.85888672 C444.89900795 370.48751083 445.54874832 370.11613495 446.2181778 369.73350525 C447.81216016 368.82240967 449.40608576 367.91121476 451 367 C451.301454 353.31810026 451.53231559 339.63699239 451.67355824 325.95244598 C451.74135667 319.59763661 451.83327311 313.24510168 451.98071289 306.89160156 C452.12216481 300.7576116 452.19973191 294.62580584 452.23340416 288.49031067 C452.25739188 286.15205995 452.30424052 283.81392656 452.37449074 281.47660828 C453.30446329 269.82048252 453.30446329 269.82048252 449.66198349 259.2093811 C446.20932184 256.12593701 442.4034251 254.42739309 438 253 C440.26620248 251.08789166 442.40669695 249.29244331 445.07633114 247.97656155 C449.36939026 245.85340005 449.36939026 245.85340005 451.74409676 241.89407539 C452.05175987 239.19728276 452.09260968 236.6031069 452.05102539 233.88891602 C452.06665024 232.87369873 452.08227509 231.85848145 452.09837341 230.8125 C452.13866319 227.45855792 452.12024624 224.10797237 452.09765625 220.75390625 C452.10558551 218.42129175 452.11574363 216.08868384 452.1280365 213.75608826 C452.14434401 208.86748929 452.13119905 203.98005735 452.09790039 199.09155273 C452.05793388 192.82809845 452.09452015 186.56783435 452.15367985 180.30462742 C452.19011087 175.48741659 452.18406419 170.67096601 452.16540337 165.85368156 C452.16191683 163.54480966 452.1720563 161.23587535 452.19609261 158.92712593 C452.22370734 155.69632287 452.19367676 152.4709776 452.14868164 149.24047852 C452.16847076 148.28807785 452.18825989 147.33567719 452.20864868 146.35441589 C452.10006851 142.34158703 451.99886404 139.96246099 449.02641773 137.09834385 C446.74118265 135.55536609 444.45768508 134.2457219 442 133 C440.4996521 132.11308472 440.4996521 132.11308472 438.96899414 131.20825195 C437.64049438 130.48061646 437.64049438 130.48061646 436.28515625 129.73828125 C435.27791504 129.18205078 434.27067383 128.62582031 433.23291016 128.05273438 C432.1866748 127.47845703 431.14043945 126.90417969 430.0625 126.3125 C421.55523675 121.60140115 413.17440806 116.75252761 404.91113281 111.62670898 C400.27749911 108.7582946 395.58290054 106.08169522 390.76953125 103.5234375 C387.28815056 101.60843261 383.89756157 99.55905116 380.5 97.5 C369.835841 90.27730863 369.835841 90.27730863 358 86 C356.01482258 86.67151192 356.01482258 86.67151192 354.109375 87.87109375 C353.40039062 88.28037109 352.69140625 88.68964844 351.9609375 89.11132812 C351.23132813 89.54896484 350.50171875 89.98660156 349.75 90.4375 C349.00492187 90.87126953 348.25984375 91.30503906 347.4921875 91.75195312 C345.65500263 92.8236443 343.82662026 93.91039977 342 95 C342.10441406 93.69804688 342.20882813 92.39609375 342.31640625 91.0546875 C343.20082786 81.92930499 343.20082786 81.92930499 340.3828125 73.61328125 C337.98883977 72.05847689 335.66231252 71.02605913 333 70 C331.28058659 69.08297952 329.57252751 68.14442705 327.875 67.1875 C326.95460938 66.69636719 326.03421875 66.20523438 325.0859375 65.69921875 C320.89781877 63.39310274 316.81787284 60.92026837 312.74169922 58.42260742 C309.11954367 56.21848936 305.44916988 54.14122836 301.71875 52.125 C295.11865999 48.55089498 288.69063767 44.70704327 282.25 40.85546875 C276.71943006 37.56383693 271.13521886 34.41137 265.47265625 31.35253906 C261.4156535 29.13336497 257.48238408 26.72218611 253.53125 24.3203125 C249.26107157 22.09296634 247.2560072 23.22076396 243.37109375 25.53515625 Z " fill="#0D008D" transform="translate(0,0)"/>
<path d="M0 0 C3.57954374 1.96010155 7.10675111 3.98497254 10.60546875 6.0859375 C12.1402206 6.99807662 13.67538205 7.90952687 15.2109375 8.8203125 C16.34861572 9.49610352 16.34861572 9.49610352 17.50927734 10.18554688 C22.85652251 13.34478785 28.26881512 16.3916101 33.66796875 19.4609375 C48.7265605 28.02685201 63.73920419 36.67025172 78.66796875 45.4609375 C79.59609375 45.97519287 80.52421875 46.48944824 81.48046875 47.01928711 C82.20234375 47.49503174 82.92421875 47.97077637 83.66796875 48.4609375 C83.66796875 49.1209375 83.66796875 49.7809375 83.66796875 50.4609375 C82.96003174 50.85249023 82.25209473 51.24404297 81.52270508 51.64746094 C68.82175195 58.67653216 56.13559747 65.72432527 43.54882812 72.95654297 C35.52562343 77.56045206 27.45192685 82.0726737 19.36669922 86.56665039 C18.37943848 87.11699951 17.39217773 87.66734863 16.375 88.234375 C15.41674316 88.76514648 14.45848633 89.29591797 13.47119141 89.84277344 C11.60038171 90.92270086 9.7600842 92.05726261 7.95458984 93.24316406 C1.56483164 97.42743675 1.56483164 97.42743675 -2.9921875 97.59765625 C-6.91080886 96.26395003 -10.28486164 94.46360647 -13.76953125 92.2734375 C-15.25980639 91.36748493 -16.75073192 90.46260167 -18.2421875 89.55859375 C-19.04930176 89.06504395 -19.85641602 88.57149414 -20.68798828 88.06298828 C-25.65841864 85.05135725 -30.68599658 82.13711629 -35.70703125 79.2109375 C-36.69243896 78.6331958 -37.67784668 78.0554541 -38.69311523 77.46020508 C-44.23927885 74.21824021 -49.82588488 71.07324888 -55.47509766 68.01464844 C-60.78633434 65.12619259 -66.05683899 62.16454456 -71.33203125 59.2109375 C-72.44964844 58.58703125 -73.56726563 57.963125 -74.71875 57.3203125 C-75.78738281 56.7221875 -76.85601562 56.1240625 -77.95703125 55.5078125 C-78.91867188 54.96995117 -79.8803125 54.43208984 -80.87109375 53.87792969 C-82.73195412 52.8064581 -84.5453783 51.65203947 -86.33203125 50.4609375 C-85.0240727 46.53706184 -83.59463445 46.1874439 -80.0234375 44.1953125 C-78.89655518 43.55996582 -77.76967285 42.92461914 -76.60864258 42.27001953 C-75.37062356 41.58362621 -74.13258598 40.89726638 -72.89453125 40.2109375 C-71.62530902 39.498276 -70.35667965 38.78455769 -69.08862305 38.06982422 C-66.46778209 36.59312149 -63.84489644 35.12015017 -61.22070312 33.64941406 C-55.33390898 30.34370778 -49.48918682 26.96549729 -43.64453125 23.5859375 C-42.56872803 22.96493164 -41.4929248 22.34392578 -40.38452148 21.70410156 C-34.22784654 18.1469327 -28.08479746 14.56764972 -21.95703125 10.9609375 C-21.28551025 10.56825684 -20.61398926 10.17557617 -19.92211914 9.77099609 C-16.85111025 7.97078945 -13.8095227 6.14161789 -10.80859375 4.2265625 C-9.74382812 3.56140625 -8.6790625 2.89625 -7.58203125 2.2109375 C-6.6796875 1.62828125 -5.77734375 1.045625 -4.84765625 0.4453125 C-2.33203125 -0.5390625 -2.33203125 -0.5390625 0 0 Z " fill="#0E018D" transform="translate(251.33203125,27.5390625)"/>
<path d="M0 0 C0.30153691 12.63877786 0.53235519 25.27669727 0.67355824 37.91834259 C0.74134031 43.78897851 0.83322098 49.65714995 0.98071289 55.52636719 C1.12223206 61.19353817 1.19974422 66.85834361 1.23340416 72.52714539 C1.25738061 74.68679562 1.30420844 76.84631963 1.37449074 79.00495911 C1.88890531 95.46295374 1.88890531 95.46295374 -1.23598671 99.6600914 C-4.70577772 102.77085395 -8.67299389 104.33181674 -13 106 C-15.12664895 107.16132248 -17.23996078 108.34779591 -19.33203125 109.5703125 C-21.49091505 110.75752516 -23.65111021 111.94235578 -25.8125 113.125 C-34.75953054 118.04803799 -43.63417367 123.07267068 -52.4375 128.25 C-60.0361361 132.7123011 -67.66462451 137.10816788 -75.375 141.375 C-76.2198999 141.84583008 -77.0647998 142.31666016 -77.93530273 142.80175781 C-78.70688721 143.22553711 -79.47847168 143.64931641 -80.2734375 144.0859375 C-81.28543213 144.6435376 -81.28543213 144.6435376 -82.31787109 145.21240234 C-84 146 -84 146 -86 146 C-86.27821374 133.34385104 -86.49134218 120.68843072 -86.62174606 108.02984524 C-86.6843404 102.15152834 -86.76920696 96.27530507 -86.90527344 90.39819336 C-87.03580429 84.72457957 -87.10743643 79.05297687 -87.13852692 73.37797737 C-87.1606766 71.21476631 -87.20393546 69.05166381 -87.26876068 66.88931084 C-87.75683236 49.9321829 -87.75683236 49.9321829 -83.44572449 45.19078064 C-80.33336267 43.3492086 -77.41611316 42.16047332 -74 41 C-72.11128404 39.97793049 -70.23904602 38.92405479 -68.39453125 37.82421875 C-66.53411303 36.7781853 -64.67343106 35.73262082 -62.8125 34.6875 C-55.10597043 30.34834517 -47.43452252 25.96040496 -39.84301758 21.42260742 C-35.25788195 18.69368984 -30.59887921 16.11984232 -25.90820312 13.5769043 C-22.98284531 11.99069828 -20.06491915 10.39152227 -17.1484375 8.7890625 C-15.22395833 7.734375 -13.29947917 6.6796875 -11.375 5.625 C-10.38371094 5.07972656 -9.39242187 4.53445313 -8.37109375 3.97265625 C-7.43136719 3.45832031 -6.49164063 2.94398438 -5.5234375 2.4140625 C-4.67700684 1.9495166 -3.83057617 1.4849707 -2.95849609 1.00634766 C-1 0 -1 0 0 0 Z " fill="#0E018D" transform="translate(447,266)"/>
<path d="M0 0 C6.79743515 3.39871758 13.10447121 6.55786901 19.50292969 10.48193359 C23.97952371 13.20342965 28.55899141 15.74489354 33.125 18.3125 C34.6409375 19.16714844 34.6409375 19.16714844 36.1875 20.0390625 C39.12416126 21.69420364 42.0618574 23.34749021 45 25 C46.11133301 25.62527588 46.11133301 25.62527588 47.24511719 26.26318359 C49.16329292 27.34233332 51.08162042 28.4212127 53 29.5 C54.90518109 30.57148951 56.81031292 31.64306627 58.71533203 32.71484375 C60.44269608 33.6865091 62.1702722 34.65779748 63.89794922 35.62890625 C67.07875138 37.41758536 70.2582233 39.20861111 73.4375 41 C74.46423828 41.57685547 75.49097656 42.15371094 76.54882812 42.74804688 C77.50080078 43.28494141 78.45277344 43.82183594 79.43359375 44.375 C80.29009521 44.85710937 81.14659668 45.33921875 82.02905273 45.8359375 C84 47 84 47 85 48 C85.09530981 51.04402422 85.12551639 54.06531708 85.11352539 57.10961914 C85.11367142 58.06561508 85.11381744 59.02161102 85.1139679 60.00657654 C85.11326835 63.18279245 85.10547403 66.35895052 85.09765625 69.53515625 C85.09579222 71.73091093 85.09436825 73.92666602 85.09336853 76.12242126 C85.08954219 81.91420633 85.07971091 87.7059665 85.06866455 93.4977417 C85.05845293 99.40278791 85.05387145 105.30783813 85.04882812 111.21289062 C85.03808875 122.80860472 85.02101093 134.40430029 85 146 C80.18074852 144.47313767 76.10661208 142.44452819 71.8125 139.8125 C64.17592252 135.22384722 56.42445898 130.86777087 48.625 126.5625 C39.96097668 121.77572608 31.3301605 116.94388024 22.78955078 111.93969727 C15.24542711 107.52573755 7.62406598 103.28853711 0 99 C0 66.33 0 33.66 0 0 Z " fill="#0D008D" transform="translate(53,266)"/>
<path d="M0 0 C3.99621468 1.07296933 7.12793297 2.81366917 10.6484375 4.94140625 C11.28910156 5.31845703 11.92976563 5.69550781 12.58984375 6.08398438 C14.15597816 7.00730242 15.71541784 7.94196018 17.2734375 8.87890625 C17.57523858 19.04022693 17.8059172 29.20047515 17.94699574 39.3653717 C18.01472678 44.08617901 18.10649181 48.80391191 18.25415039 53.52294922 C18.3958854 58.08144021 18.47322011 62.63698497 18.50684166 67.19750977 C18.53078247 68.93300794 18.57754475 70.66835225 18.64792824 72.40258789 C18.85923588 77.82716821 18.84387957 82.65020975 17.2734375 87.87890625 C11.75779727 93.64735307 5.24594751 96.24610953 -2.7265625 96.87890625 C-5.41040039 95.92602539 -5.41040039 95.92602539 -7.94921875 94.4140625 C-8.90119141 93.86041016 -9.85316406 93.30675781 -10.83398438 92.73632812 C-11.80916016 92.14400391 -12.78433594 91.55167969 -13.7890625 90.94140625 C-14.73716797 90.38388672 -15.68527344 89.82636719 -16.66210938 89.25195312 C-18.63919866 88.08903743 -20.61222467 86.91919145 -22.58154297 85.74316406 C-27.66967301 82.72709815 -32.81563088 79.8127807 -37.95626831 76.88754272 C-40.83592246 75.24684129 -43.71067402 73.59759902 -46.5859375 71.94921875 C-59.58461783 64.5044187 -72.60217191 57.10079314 -85.7265625 49.87890625 C-85.7265625 49.21890625 -85.7265625 48.55890625 -85.7265625 47.87890625 C-85.00404297 47.46753418 -84.28152344 47.05616211 -83.53710938 46.63232422 C-69.93830778 38.885818 -56.36089087 31.10842434 -42.85668945 23.19775391 C-33.51999174 17.73750523 -24.12743984 12.37654785 -14.72460938 7.03125 C-13.59474609 6.38800781 -12.46488281 5.74476562 -11.30078125 5.08203125 C-10.29619873 4.51129883 -9.29161621 3.94056641 -8.2565918 3.35253906 C-2.32356063 -0.10319539 -2.32356063 -0.10319539 0 0 Z " fill="#0F028E" transform="translate(140.7265625,91.12109375)"/>
<path d="M0 0 C1.52971436 0.89440796 1.52971436 0.89440796 3.09033203 1.80688477 C4.17942871 2.45584717 5.26852539 3.10480957 6.390625 3.7734375 C7.54613779 4.45271967 8.70223637 5.13100623 9.85888672 5.80834961 C12.26137391 7.21625344 14.66128741 8.62840441 17.05957031 10.04345703 C22.60334741 13.30900805 28.18721815 16.50505365 33.765625 19.7109375 C42.50818609 24.75050906 51.23643388 29.81425492 59.953125 34.8984375 C61.45673584 35.77544312 61.45673584 35.77544312 62.99072266 36.67016602 C68.21690881 39.72216119 68.21690881 39.72216119 70.640625 41.1484375 C71.56512451 41.66051758 72.48962402 42.17259766 73.44213867 42.70019531 C74.16763916 43.17811523 74.89313965 43.65603516 75.640625 44.1484375 C75.640625 44.8084375 75.640625 45.4684375 75.640625 46.1484375 C74.99327393 46.50969727 74.34592285 46.87095703 73.67895508 47.24316406 C62.16451113 53.67200271 50.65633361 60.11096329 39.203125 66.6484375 C37.97396362 67.34888184 37.97396362 67.34888184 36.7199707 68.06347656 C32.57289098 70.43614379 28.45573045 72.8505694 24.36328125 75.31640625 C20.22720385 77.80825135 16.03733957 80.14906696 11.77734375 82.421875 C9.34868978 83.75869325 6.97283944 85.13572718 4.59765625 86.5625 C3.53925537 87.18741333 3.53925537 87.18741333 2.45947266 87.82495117 C1.0644424 88.65030413 -0.32303793 89.48858708 -1.70166016 90.34106445 C-4.85643016 92.18901562 -6.72833973 93.15402895 -10.4453125 93.12109375 C-13.82588336 91.99272627 -16.62661286 90.49910739 -19.671875 88.6484375 C-21.24388672 87.70484375 -21.24388672 87.70484375 -22.84765625 86.7421875 C-25.359375 85.1484375 -25.359375 85.1484375 -26.359375 84.1484375 C-26.53402265 81.73324945 -26.64393253 79.34480258 -26.7109375 76.92578125 C-26.73517792 76.16955978 -26.75941833 75.41333832 -26.78439331 74.63420105 C-26.99622609 67.63482301 -27.12068112 60.63346239 -27.21868896 53.63165283 C-27.2856649 48.92712882 -27.38114592 44.22710305 -27.54589844 39.52490234 C-27.70450911 34.97802151 -27.78853342 30.4352415 -27.82147217 25.88577271 C-27.84656146 24.15657117 -27.89767331 22.42753444 -27.97589111 20.69992065 C-28.53984749 7.64951367 -28.53984749 7.64951367 -24.91064453 3.48669434 C-16.72942611 -3.38012581 -9.56679482 -5.65750326 0 0 Z " fill="#0E018D" transform="translate(368.359375,94.8515625)"/>
<path d="M0 0 C0 32.34 0 64.68 0 98 C-6.93 101.96 -6.93 101.96 -14 106 C-18.13389806 104.34644077 -21.81005379 102.48438571 -25.625 100.25 C-29.86572774 97.79297822 -34.11579346 95.37561729 -38.4375 93.0625 C-43.5412142 90.30393872 -48.49273371 87.32225525 -53.45288086 84.31665039 C-57.0912453 82.12013747 -60.7525376 80.00756914 -64.5 78 C-69.12072696 75.52211772 -73.62924307 72.88325604 -78.125 70.1875 C-79.12176758 69.59098633 -79.12176758 69.59098633 -80.13867188 68.98242188 C-84.87054893 66.12945107 -84.87054893 66.12945107 -86 65 C-87.13810957 59.32863379 -87.90456908 53.58400067 -86 48 C-82.51305785 43.66023571 -76.80845896 41.6406108 -71.87255859 39.37402344 C-66.8738085 36.98298438 -62.08465114 34.21116992 -57.26037598 31.4894104 C-55.49637443 30.49796226 -53.72733892 29.51621283 -51.95605469 28.5378418 C-44.89220091 24.63509724 -37.89629319 20.64228807 -30.96386719 16.51147461 C-25.03401129 12.98811976 -19.0153819 9.63428747 -12.97241211 6.30932617 C-11.91098999 5.72501831 -11.91098999 5.72501831 -10.828125 5.12890625 C-10.16490234 4.7642627 -9.50167969 4.39961914 -8.81835938 4.02392578 C-7.22576321 3.12712821 -5.66446196 2.17521502 -4.109375 1.21484375 C-2 0 -2 0 0 0 Z " fill="#0E018D" transform="translate(447,144)"/>
<path d="M0 0 C2.640625 1.375 2.640625 1.375 5.25 3 C6.12140625 3.53625 6.9928125 4.0725 7.890625 4.625 C10 6 10 6 11 7 C11.09530981 10.04402422 11.12551639 13.06531708 11.11352539 16.10961914 C11.11367142 17.06561508 11.11381744 18.02161102 11.1139679 19.00657654 C11.11326835 22.18279245 11.10547403 25.35895052 11.09765625 28.53515625 C11.09579222 30.73091093 11.09436825 32.92666602 11.09336853 35.12242126 C11.08954219 40.91420633 11.07971091 46.7059665 11.06866455 52.4977417 C11.05845293 58.40278791 11.05387145 64.30783813 11.04882812 70.21289062 C11.03808875 81.80860472 11.02101093 93.40430029 11 105 C9.10427975 104.06490662 7.21003752 103.12681653 5.31640625 102.1875 C4.26138916 101.66542969 3.20637207 101.14335937 2.11938477 100.60546875 C-1.53841975 98.72288892 -5.02759247 96.63479648 -8.53222656 94.48510742 C-11.00382835 92.9976961 -13.50831247 91.60794546 -16.046875 90.23828125 C-22.1237263 86.9408281 -28.1581933 83.57093619 -34.1875 80.1875 C-35.27957764 79.57511475 -36.37165527 78.96272949 -37.49682617 78.33178711 C-39.67090682 77.11244702 -41.84482135 75.89281069 -44.01855469 74.67285156 C-47.2943654 72.83483527 -50.57107529 70.99845054 -53.85083008 69.16748047 C-55.13980045 68.44142199 -56.42371791 67.70630504 -57.7019043 66.96142578 C-60.63489699 65.2587536 -63.48735639 63.80317293 -66.63671875 62.53125 C-70.19264276 60.97837261 -72.4535012 59.94262083 -75 57 C-76.42797108 51.09771955 -75.68152407 44.96333559 -75 39 C-72.74895207 37.7136869 -70.49789961 36.42738174 -68.24682617 35.14111328 C-66.31201318 34.03545886 -64.37728175 32.92966168 -62.44262695 31.82373047 C-54.0714251 27.03879193 -54.0714251 27.03879193 -50.33203125 24.9140625 C-44.9345859 21.84321781 -39.5557091 18.74441041 -34.1953125 15.609375 C-33.14577393 14.99562012 -32.09623535 14.38186523 -31.01489258 13.74951172 C-28.93828121 12.53397294 -26.86254268 11.31694129 -24.7878418 10.09814453 C-22.83306326 8.95340349 -20.87468727 7.81478129 -18.91259766 6.68261719 C-16.9294814 5.53696444 -14.95545032 4.37547281 -12.98974609 3.20019531 C-12.02762207 2.64170898 -11.06549805 2.08322266 -10.07421875 1.5078125 C-8.78970825 0.74815186 -8.78970825 0.74815186 -7.47924805 -0.02685547 C-4.48447354 -1.20235238 -3.03257752 -0.95924933 0 0 Z " fill="#0F028E" transform="translate(237,367)"/>
<path d="M0 0 C2.55559246 1.26984717 5.11030616 2.54141167 7.66455078 3.81396484 C8.74178154 4.34889809 8.74178154 4.34889809 9.84077454 4.89463806 C15.30101225 7.61744018 20.62448954 10.51544637 25.875 13.625 C26.67744141 14.09446045 27.47988281 14.5639209 28.30664062 15.04760742 C33.09220184 17.85295316 37.84742924 20.70697222 42.59301758 23.5793457 C45.02596007 25.01532221 47.48782404 26.37470837 49.97265625 27.71875 C56.31767743 31.16671651 62.63168969 34.66841467 68.9375 38.1875 C70.04673828 38.80302734 71.15597656 39.41855469 72.29882812 40.05273438 C73.36423828 40.64763672 74.42964844 41.24253906 75.52734375 41.85546875 C76.96194946 42.65440552 76.96194946 42.65440552 78.42553711 43.46948242 C83.15670898 46.28216298 83.15670898 46.28216298 85 48 C85.45410156 49.99291992 85.45410156 49.99291992 85.390625 52.23046875 C85.37773437 53.03291016 85.36484375 53.83535156 85.3515625 54.66210938 C85.31804687 55.49548828 85.28453125 56.32886719 85.25 57.1875 C85.23195313 58.03248047 85.21390625 58.87746094 85.1953125 59.74804688 C85.14820586 61.83251573 85.07646233 63.91640144 85 66 C84.1234375 66.48726563 83.246875 66.97453125 82.34375 67.4765625 C64.79903545 77.26830128 47.49999566 87.49053049 30.21826172 97.73730469 C28.55944148 98.72028589 26.89813996 99.69909709 25.23388672 100.67285156 C23.80882921 101.51947589 22.39706065 102.38917396 21.00439453 103.28808594 C18.35860354 104.9540863 16.56263077 106.01347619 13.390625 105.9375 C10.64449516 104.86058634 8.25440714 103.55963079 5.75 102 C4.87859375 101.46375 4.0071875 100.9275 3.109375 100.375 C1 99 1 99 0 98 C-0.09530981 94.95597578 -0.12551639 91.93468292 -0.11352539 88.89038086 C-0.11367142 87.93438492 -0.11381744 86.97838898 -0.1139679 85.99342346 C-0.11326835 82.81720755 -0.10547403 79.64104948 -0.09765625 76.46484375 C-0.09579222 74.26908907 -0.09436825 72.07333398 -0.09336853 69.87757874 C-0.08954219 64.08579367 -0.07971091 58.2940335 -0.06866455 52.5022583 C-0.05845293 46.59721209 -0.05387145 40.69216187 -0.04882812 34.78710938 C-0.03808875 23.19139528 -0.02101093 11.59569971 0 0 Z " fill="#0E018D" transform="translate(53,144)"/>
<path d="M0 0 C0.33 0.66 0.66 1.32 1 2 C2.65025732 2.70630942 4.32032748 3.36681563 6 4 C9.65002803 5.83004777 13.22553065 7.79963909 16.8125 9.75 C18.39635498 10.60911987 18.39635498 10.60911987 20.01220703 11.4855957 C28.55633663 16.14999944 36.97553276 21.009994 45.36450195 25.94677734 C54.15951727 31.11876924 63.0527363 36.09708025 72 41 C72.24478436 43.71378221 72.42160328 46.40546971 72.5625 49.125 C72.67561523 50.26582031 72.67561523 50.26582031 72.79101562 51.4296875 C72.88623852 53.88432213 72.79311787 55.66882259 72 58 C69.35747945 60.65893846 66.30277178 62.27140606 63 64 C62.20263428 64.44875488 61.40526855 64.89750977 60.58374023 65.35986328 C58.05240402 66.77460546 55.49851597 68.13978944 52.9375 69.5 C44.96920173 73.78708902 37.10891721 78.22055063 29.3125 82.8125 C20.94433468 87.73043194 12.53623431 92.56797496 4.06185913 97.30014038 C2.8628769 97.97006067 1.66480165 98.64160706 0.46768188 99.31484985 C-1.20111269 100.25252553 -2.87391564 101.18305655 -4.546875 102.11328125 C-5.50432617 102.64735596 -6.46177734 103.18143066 -7.44824219 103.73168945 C-10 105 -10 105 -14 106 C-14 73.66 -14 41.32 -14 8 C-9.38 5.36 -4.76 2.72 0 0 Z " fill="#0E018D" transform="translate(266,365)"/>
<path d="M0 0 C0 25.41 0 50.82 0 77 C-13.64685871 70.17657064 -13.64685871 70.17657064 -19.5625 66.5 C-24.61791824 63.41595759 -29.70968284 60.4631191 -34.92578125 57.65625 C-61.18320557 43.50993754 -61.18320557 43.50993754 -67 39 C-67 38.34 -67 37.68 -67 37 C-66.29206299 36.60844727 -65.58412598 36.21689453 -64.85473633 35.81347656 C-39.27705194 21.68487857 -39.27705194 21.68487857 -13.99609375 7.03515625 C-13.20541504 6.5656958 -12.41473633 6.09623535 -11.60009766 5.61254883 C-10.11408234 4.72744195 -8.63052872 3.8381842 -7.14990234 2.9440918 C-2.21807589 0 -2.21807589 0 0 0 Z " fill="#11048E" transform="translate(338,325)"/>
<path d="M0 0 C12 6 12 6 17 9 C19.01407282 10.16380776 21.03125833 11.32223801 23.05078125 12.4765625 C23.62249054 12.80343552 24.19419983 13.13030853 24.78323364 13.46708679 C26.6259732 14.52033711 28.46921017 15.57271305 30.3125 16.625 C30.93883331 16.98282562 31.56516663 17.34065125 32.21047974 17.70932007 C40.22091104 22.28551779 48.2373585 26.85047548 56.29223633 31.34814453 C59.56322222 33.17697201 62.79709411 35.0543095 66 37 C64.51704672 40.94014446 62.50959933 42.16798783 58.86328125 44.13671875 C57.8180127 44.70970703 56.77274414 45.28269531 55.69580078 45.87304688 C54.57931152 46.47181641 53.46282227 47.07058594 52.3125 47.6875 C50.02376409 48.9396248 47.7359995 50.19352674 45.44921875 51.44921875 C44.33853027 52.05685059 43.2278418 52.66448242 42.08349609 53.29052734 C38.2080642 55.43904469 34.40490617 57.68861612 30.625 60 C25.70105852 62.99806411 20.72777248 65.86131593 15.64453125 68.58203125 C13.7372187 69.60471139 11.83991764 70.64614062 9.94921875 71.69921875 C8.45841797 72.52873047 8.45841797 72.52873047 6.9375 73.375 C6.03902344 73.87773437 5.14054688 74.38046875 4.21484375 74.8984375 C2 76 2 76 0 76 C0 50.92 0 25.84 0 0 Z " fill="#0F028D" transform="translate(162,325)"/>
<path d="M0 0 C3.364601 1.3458404 6.15886867 2.55672823 9.23828125 4.328125 C10.04620117 4.79105957 10.85412109 5.25399414 11.68652344 5.73095703 C12.5530957 6.23224121 13.41966797 6.73352539 14.3125 7.25 C15.68390137 8.03866455 15.68390137 8.03866455 17.08300781 8.84326172 C33.78037736 18.46160115 50.40147843 28.21228484 67 38 C62.87967458 41.55256404 58.50922045 44.05963045 53.75 46.625 C47.4570066 50.06492064 41.22867926 53.58750275 35.0625 57.25 C29.68718095 60.43772468 24.28401124 63.5340986 18.7734375 66.484375 C16.5928114 67.6760411 14.43823254 68.89412821 12.2890625 70.140625 C11.65057373 70.5104248 11.01208496 70.88022461 10.35424805 71.26123047 C9.09837825 71.99098184 7.84454793 72.72425701 6.59301758 73.46142578 C2.21965071 76 2.21965071 76 0 76 C0 50.92 0 25.84 0 0 Z " fill="#0E018D" transform="translate(361,214)"/>
<path d="M0 0 C0 25.08 0 50.16 0 76 C-17.77777778 67.11111111 -17.77777778 67.11111111 -25.64453125 62.0546875 C-29.34402511 59.78933969 -33.1236275 57.72639942 -36.9387207 55.66357422 C-42.38466174 52.70411635 -47.78250032 49.65838588 -53.1875 46.625 C-54.33025391 45.98433594 -55.47300781 45.34367187 -56.65039062 44.68359375 C-59.43391038 43.12295924 -62.21710732 41.56175232 -65 40 C-65 39.01 -65 38.02 -65 37 C-62.35823839 35.47590676 -59.71647546 33.9518158 -57.07470703 32.42773438 C-54.75014113 31.08662601 -52.42559365 29.74548578 -50.10107422 28.40429688 C-44.61756461 25.24050871 -39.13393256 22.07693453 -33.64932251 18.91505432 C-31.91899312 17.91750278 -30.18874431 16.91981148 -28.45849609 15.92211914 C-26.30010617 14.67757514 -24.14158597 13.43325704 -21.98291016 12.18920898 C-20.98050293 11.61114502 -19.9780957 11.03308105 -18.9453125 10.4375 C-17.9749707 9.87804687 -17.00462891 9.31859375 -16.00488281 8.7421875 C-11.7557414 6.2785969 -7.52514078 3.78355988 -3.29638672 1.28515625 C-1 0 -1 0 0 0 Z " fill="#0F028E" transform="translate(138,214)"/>
<path d="M0 0 C0 24.09 0 48.18 0 73 C-4.23306334 71.58897889 -7.27390644 70.45139204 -11.01953125 68.3125 C-11.95120117 67.78342041 -12.88287109 67.25434082 -13.84277344 66.70922852 C-14.8227832 66.14518311 -15.80279297 65.5811377 -16.8125 65 C-17.82989258 64.41984131 -18.84728516 63.83968262 -19.89550781 63.24194336 C-26.73982871 59.32898296 -33.54481262 55.35120986 -40.3269043 51.33154297 C-45.05792669 48.53291001 -49.84120445 45.85232219 -54.68359375 43.25 C-57.82248977 41.55616066 -60.91180436 39.78429081 -64 38 C-64 37.34 -64 36.68 -64 36 C-61.35808104 34.47581599 -58.71615814 32.95163882 -56.07421875 31.42749023 C-53.75123713 30.08727059 -51.42831082 28.74695558 -49.10546875 27.40649414 C-43.60411726 24.23195982 -38.10237871 21.05811236 -32.5977478 17.88926697 C-30.85195174 16.88421933 -29.10636549 15.87880822 -27.36083984 14.87329102 C-25.17668202 13.61525038 -22.99213332 12.35788803 -20.80712891 11.10131836 C-15.14009198 7.83605152 -9.51884344 4.51700086 -3.9609375 1.06860352 C-2 0 -2 0 0 0 Z " fill="#11048F" transform="translate(338,103)"/>
<path d="M0 0 C3.60548927 1.44219571 6.53568696 2.78847369 9.82421875 4.73046875 C11.22498657 5.55333374 11.22498657 5.55333374 12.65405273 6.39282227 C14.15560913 7.28118774 14.15560913 7.28118774 15.6875 8.1875 C17.83819906 9.45110415 19.98925374 10.71410316 22.140625 11.9765625 C23.26017578 12.63430664 24.37972656 13.29205078 25.53320312 13.96972656 C31.31818234 17.36237498 37.1281437 20.71183043 42.9375 24.0625 C44.00766357 24.68084717 45.07782715 25.29919434 46.18041992 25.9362793 C52.09075949 29.34549921 58.02189333 32.71095474 64 36 C64 36.66 64 37.32 64 38 C63.16529175 38.45101074 63.16529175 38.45101074 62.3137207 38.91113281 C46.57495634 47.4265751 30.97224134 56.15434419 15.53125 65.19921875 C14.65428467 65.71154053 13.77731934 66.2238623 12.8737793 66.75170898 C11.20099674 67.73024931 9.53047557 68.71266856 7.86254883 69.69946289 C7.12029053 70.13379639 6.37803223 70.56812988 5.61328125 71.015625 C4.96141846 71.40008789 4.30955566 71.78455078 3.63793945 72.18066406 C2 73 2 73 0 73 C0 48.91 0 24.82 0 0 Z " fill="#0F028E" transform="translate(162,103)"/>
<path d="M0 0 C2.45703125 1.19140625 2.45703125 1.19140625 4.8125 2.5625 C5.60269531 3.01753906 6.39289063 3.47257812 7.20703125 3.94140625 C7.79871094 4.29074219 8.39039063 4.64007813 9 5 C6.4476325 7.9962575 3.75947668 9.78851086 0.33984375 11.64453125 C-0.47234619 12.08772705 -1.28453613 12.53092285 -2.12133789 12.98754883 C-3.05127563 13.48871216 -3.05127563 13.48871216 -4 14 C-3.98366013 15.03459351 -3.96732025 16.06918701 -3.95048523 17.13513184 C-3.80472738 26.90430429 -3.72781185 36.67194107 -3.71759319 46.4422226 C-3.71014574 51.46517089 -3.67879388 56.48555823 -3.59204102 61.5078125 C-3.50913988 66.35873355 -3.49004004 71.20616708 -3.51441383 76.05769348 C-3.5126273 77.90452731 -3.48818261 79.75148781 -3.44031334 81.59770203 C-3.09680054 95.67027677 -3.09680054 95.67027677 -6.29880142 99.58987427 C-10.46614854 103.18709367 -15.41291447 106 -21 106 C-21 73.66 -21 41.32 -21 8 C-5 -1 -5 -1 0 0 Z " fill="#170A91" transform="translate(163,306)"/>
<path d="M0 0 C1.36242543 5.745582 2.3452922 11.39228292 0 17 C-5.00864775 22.29393268 -12.25274795 25.18895664 -18.70605469 28.34472656 C-24.28034379 31.14591839 -29.62340928 34.34030312 -35 37.5 C-41.42402949 41.26915444 -47.83432858 44.95719225 -54.50390625 48.27734375 C-64.15772549 52.6121707 -64.15772549 52.6121707 -71.02587891 60.12011719 C-72.20088393 64.86759139 -71.86977164 69.22850627 -71 74 C-71.74765625 73.59007812 -72.4953125 73.18015625 -73.265625 72.7578125 C-74.25046875 72.21898437 -75.2353125 71.68015625 -76.25 71.125 C-77.22453125 70.59132813 -78.1990625 70.05765625 -79.203125 69.5078125 C-81.45130408 68.29580534 -83.7072805 67.12452433 -86 66 C-87.5145808 53.88335358 -87.5145808 53.88335358 -86 48 C-82.88405445 44.43891937 -79.33573022 42.81288386 -75.03271484 40.94238281 C-71.31299773 39.21789229 -67.87502964 37.0011607 -64.375 34.875 C-57.98825675 31.11160908 -51.52687758 27.51447254 -45 24 C-31.84932212 16.84635372 -18.80907962 9.51367823 -5.83740234 2.04052734 C-2.23416237 0 -2.23416237 0 0 0 Z " fill="#12058F" transform="translate(338,81)"/>
<path d="M0 0 C3.90240175 1.5609607 7.32896096 3.18721203 10.98828125 5.203125 C11.55985962 5.51746994 12.13143799 5.83181488 12.72033691 6.15568542 C14.58629982 7.18370906 16.44955024 8.21652732 18.3125 9.25 C18.95327484 9.60426056 19.59404968 9.95852112 20.25424194 10.32351685 C31.14993577 16.34942078 41.92673041 22.56438369 52.66015625 28.875 C56.66508883 31.2274084 60.68734518 33.54332122 64.7409668 35.81079102 C66.05048834 36.54519883 67.35561211 37.28752129 68.65551758 38.03881836 C71.62278408 39.74407564 74.4632598 41.19136805 77.640625 42.50390625 C85.17266435 45.85829122 85.17266435 45.85829122 86.70751953 49.83154297 C87.87993343 54.92462251 88.02127068 60.11392653 86 65 C82.62325472 69.06226909 77.84542168 71.16272571 73 73 C72.34 73 71.68 73 71 73 C71.13664062 72.03320312 71.27328125 71.06640625 71.4140625 70.0703125 C71.64590868 65.73393032 71.84272279 62.00078332 70 58 C65.75998623 53.78552848 59.83571295 51.58973998 54.46337891 49.16064453 C50.7184579 47.39618918 47.22129548 45.27377495 43.6875 43.125 C42.29038994 42.29463747 40.89191875 41.46656137 39.4921875 40.640625 C38.77256836 40.21587891 38.05294922 39.79113281 37.31152344 39.35351562 C30.39495554 35.30351009 23.41550087 31.36086504 16.45019531 27.39550781 C12.86038399 25.35093213 9.27392602 23.30050577 5.6875 21.25 C3.810625 20.1775 1.93375 19.105 0 18 C0 12.06 0 6.12 0 0 Z " fill="#12058F" transform="translate(162,81)"/>
<path d="M0 0 C6.93 3.96 6.93 3.96 14 8 C14 40.34 14 72.68 14 106 C9.82562101 104.60854034 6.80803904 103.49553763 3.125 101.375 C2.34382813 100.92898438 1.56265625 100.48296875 0.7578125 100.0234375 C0.17773438 99.68570313 -0.40234375 99.34796875 -1 99 C-0.98366013 97.96540649 -0.96732025 96.93081299 -0.95048523 95.86486816 C-0.80472738 86.09569571 -0.72781185 76.32805893 -0.71759319 66.5577774 C-0.71014574 61.53482911 -0.67879388 56.51444177 -0.59204102 51.4921875 C-0.50913988 46.64126645 -0.49004004 41.79383292 -0.51441383 36.94230652 C-0.5126273 35.09547269 -0.48818261 33.24851219 -0.44031334 31.40229797 C0.18125251 21.85739997 0.18125251 21.85739997 -3.34714127 13.41012573 C-6.87250133 10.47262373 -10.74175541 8.64222868 -15 7 C-13.80125164 3.40375492 -12.96359217 3.05897573 -9.75 1.25 C-8.98171875 0.80140625 -8.2134375 0.3528125 -7.421875 -0.109375 C-5 -1 -5 -1 0 0 Z " fill="#0E018D" transform="translate(343,306)"/>
<path d="M0 0 C2.69941923 1.00146251 5.10017349 2.30119944 7.61254883 3.70996094 C8.69987305 4.31678711 9.78719727 4.92361328 10.9074707 5.54882812 C12.08398821 6.21176285 13.26041839 6.87485258 14.43676758 7.53808594 C15.65336779 8.21975216 16.87016716 8.90106304 18.0871582 9.58203125 C21.18112528 11.31499555 24.27171909 13.05387725 27.36114502 14.79492188 C30.02430774 16.29507709 32.6897787 17.7911222 35.35473633 19.28808594 C37.2781542 20.37099171 39.20133818 21.45431302 41.12426758 22.53808594 C42.05255371 23.06063965 42.98083984 23.58319336 43.93725586 24.12158203 C48.53652638 26.72088763 53.10515224 29.36010095 57.63598633 32.07714844 C58.50932617 32.59696289 59.38266602 33.11677734 60.2824707 33.65234375 C61.92439749 34.63306218 63.56025193 35.62404651 65.1887207 36.62695312 C65.91381836 37.05911133 66.63891602 37.49126953 67.38598633 37.93652344 C68.014646 38.3198584 68.64330566 38.70319336 69.29101562 39.09814453 C71.65794037 39.98893283 72.7746747 39.64643938 75.12426758 38.78808594 C77.35355909 37.64041364 79.5603536 36.44851192 81.74926758 35.22558594 C87.90495168 31.78808594 87.90495168 31.78808594 90.12426758 31.78808594 C90.92601794 36.66711376 91.23554834 40.94310952 90.12426758 45.78808594 C85.49095452 50.46923556 80.12682035 52.78359555 73.90161133 54.86621094 C67.94343311 54.74298078 63.77370976 51.73923589 58.74926758 48.72558594 C56.51000904 47.42554717 54.27041608 46.12608428 52.03051758 44.82714844 C50.87540658 44.14936639 49.72045902 43.47130574 48.56567383 42.79296875 C43.170682 39.64997266 37.70777886 36.63140161 32.24926758 33.60058594 C22.5272416 28.16757802 12.87379218 22.62440478 3.24926758 17.02099609 C-2.10807698 13.9127022 -7.49322168 10.85251701 -12.87573242 7.78808594 C-4.87088524 -0.55029655 -4.87088524 -0.55029655 0 0 Z " fill="#130690" transform="translate(67.875732421875,255.2119140625)"/>
<path d="M0 0 C3.84577806 1.96213166 7.46902828 4.17293251 11.0625 6.5625 C7.28995533 9.58644573 3.16498049 11.94389093 -1 14.375 C-2.0509082 14.9947168 -2.0509082 14.9947168 -3.12304688 15.62695312 C-8.03138465 18.50456037 -13.00178004 21.25351264 -18.00268555 23.96655273 C-23.2901193 26.8418505 -28.55059082 29.76582588 -33.8125 32.6875 C-34.39211487 33.00932251 -34.97172974 33.33114502 -35.56890869 33.66271973 C-45.35291217 39.09809116 -55.09627205 44.60250763 -64.8046875 50.171875 C-65.53268555 50.58501953 -66.26068359 50.99816406 -67.01074219 51.42382812 C-69.11798139 52.63347313 -69.11798139 52.63347313 -71.6953125 54.515625 C-73.9375 55.5625 -73.9375 55.5625 -76.39453125 54.94140625 C-77.23371094 54.48636719 -78.07289063 54.03132813 -78.9375 53.5625 C-79.86949219 53.07652344 -80.80148437 52.59054687 -81.76171875 52.08984375 C-82.70660156 51.56519531 -83.65148437 51.04054688 -84.625 50.5 C-88.25426566 48.47991708 -88.25426566 48.47991708 -91.9375 46.5625 C-91.9375 41.6125 -91.9375 36.6625 -91.9375 31.5625 C-87.14208711 33.48066515 -83.12109348 35.80709921 -78.75390625 38.515625 C-75.02100808 39.90316551 -73.59206485 39.0128226 -69.9375 37.5625 C-68.09336197 36.59814491 -66.27674621 35.57968275 -64.48828125 34.515625 C-63.47443359 33.9175 -62.46058594 33.319375 -61.41601562 32.703125 C-60.37123047 32.07921875 -59.32644531 31.4553125 -58.25 30.8125 C-51.4738936 26.79198181 -44.68566801 22.83436574 -37.75268555 19.08984375 C-32.53479177 16.25894066 -27.36490035 13.34159067 -22.1875 10.4375 C-21.10339844 9.83035156 -20.01929688 9.22320312 -18.90234375 8.59765625 C-17.84660156 8.00597656 -16.79085937 7.41429687 -15.703125 6.8046875 C-14.70224854 6.24547607 -13.70137207 5.68626465 -12.67016602 5.11010742 C-10.37464206 3.81006933 -8.114838 2.46653813 -5.85546875 1.10546875 C-2.9375 -0.4375 -2.9375 -0.4375 0 0 Z " fill="#12068F" transform="translate(433.9375,255.4375)"/>
<path d="M0 0 C0 18.15 0 36.3 0 55 C-3.91619415 53.43352234 -7.14272209 51.85577137 -10.75 49.75 C-15.58027752 46.94059442 -20.440979 44.19548084 -25.3359375 41.5 C-26.45258789 40.88286133 -27.56923828 40.26572266 -28.71972656 39.62988281 C-30.96623474 38.38969691 -33.21553543 37.15455427 -35.46777344 35.92480469 C-36.51223633 35.34633789 -37.55669922 34.76787109 -38.6328125 34.171875 C-39.57012207 33.6572168 -40.50743164 33.14255859 -41.47314453 32.61230469 C-44.02660298 30.9830255 -45.95022591 29.21873464 -48 27 C-47.38817871 26.64397705 -46.77635742 26.2879541 -46.14599609 25.92114258 C-43.22189846 24.21900308 -40.29842683 22.51579134 -37.375 20.8125 C-36.3029834 20.18843262 -35.2309668 19.56436523 -34.12646484 18.92138672 C-28.59554096 15.69724499 -23.0752668 12.45723835 -17.578125 9.17578125 C-16.57604004 8.57854248 -15.57395508 7.98130371 -14.54150391 7.3659668 C-12.61970244 6.21877391 -10.70004644 5.06797806 -8.78271484 3.91333008 C-7.91855957 3.39794678 -7.0544043 2.88256348 -6.1640625 2.3515625 C-5.40561035 1.89604004 -4.6471582 1.44051758 -3.86572266 0.97119141 C-2 0 -2 0 0 0 Z " fill="#140790" transform="translate(229,284)"/>
<path d="M0 0 C0 17.82 0 35.64 0 54 C-3.79505216 53.05123696 -6.31247971 51.86386013 -9.69921875 49.97265625 C-10.81901123 49.3494751 -11.93880371 48.72629395 -13.0925293 48.08422852 C-14.29098447 47.41055309 -15.48930568 46.73663928 -16.6875 46.0625 C-17.90590178 45.38124287 -19.12440809 44.70017265 -20.34301758 44.01928711 C-29.64077586 38.81275628 -38.86002579 33.47882798 -48 28 C-45.42691916 25.08391572 -42.48285727 23.42108526 -39.109375 21.5234375 C-38.53196564 21.19642853 -37.95455627 20.86941956 -37.35964966 20.53250122 C-35.49216465 19.47568991 -33.62112113 18.42535749 -31.75 17.375 C-29.20423655 15.93752605 -26.66046848 14.49654823 -24.1171875 13.0546875 C-23.49582916 12.70287415 -22.87447083 12.35106079 -22.23428345 11.98858643 C-16.2410251 8.58687522 -10.35130125 5.03267606 -4.4921875 1.40625 C-2 0 -2 0 0 0 Z " fill="#130690" transform="translate(229,162)"/>
<path d="M0 0 C0 17.82 0 35.64 0 54 C-4.21336585 52.59554472 -7.22743729 51.47708151 -10.94921875 49.34765625 C-11.8714624 48.82324951 -12.79370605 48.29884277 -13.74389648 47.75854492 C-14.71528564 47.1988501 -15.6866748 46.63915527 -16.6875 46.0625 C-17.69176025 45.48927002 -18.69602051 44.91604004 -19.73071289 44.32543945 C-22.82430631 42.5568706 -25.91293575 40.77993781 -29 39 C-29.96615234 38.44344727 -30.93230469 37.88689453 -31.92773438 37.31347656 C-37.29201077 34.22071178 -42.6490082 31.11568834 -48 28 C-45.70516202 25.47942508 -43.35707585 23.92760874 -40.37890625 22.28515625 C-39.45231201 21.76912842 -38.52571777 21.25310059 -37.57104492 20.72143555 C-36.5782251 20.17398682 -35.58540527 19.62653809 -34.5625 19.0625 C-25.63376014 14.09045348 -16.82429147 8.96555895 -8.12133789 3.60766602 C-7.34266357 3.13256592 -6.56398926 2.65746582 -5.76171875 2.16796875 C-5.08069092 1.74797607 -4.39966309 1.3279834 -3.69799805 0.89526367 C-2 0 -2 0 0 0 Z " fill="#13068F" transform="translate(338,225)"/>
<path d="M0 0 C9.69410255 5.2876923 19.373186 10.59178781 29 16 C29.81597656 16.45552246 30.63195312 16.91104492 31.47265625 17.38037109 C33.86396013 18.72050554 36.24552235 20.07650134 38.625 21.4375 C39.36572754 21.85032227 40.10645508 22.26314453 40.86962891 22.68847656 C42.63152072 23.70765544 44.32457627 24.84416971 46 26 C46 26.99 46 27.98 46 29 C45.21463867 29.44802979 44.42927734 29.89605957 43.62011719 30.35766602 C40.64524653 32.05512564 37.67067451 33.75310642 34.69628906 35.45141602 C33.42036264 36.17980803 32.14432491 36.90800511 30.86816406 37.63598633 C29.01075828 38.69558514 27.15381161 39.75598548 25.296875 40.81640625 C24.68307983 41.16619537 24.06928467 41.5159845 23.43688965 41.87637329 C18.4813302 44.70668132 13.57723715 47.61919818 8.69238281 50.57006836 C6 52 6 52 0 54 C0 36.18 0 18.36 0 0 Z " fill="#0F028E" transform="translate(271,162)"/>
<path d="M0 0 C6.93 3.96 6.93 3.96 14 8 C19.36021052 10.9995457 24.72356554 13.9929839 30.09375 16.97460938 C35.83065061 20.17403472 41.466451 23.45986202 47 27 C44.13356767 30.1027091 41.32913679 32.14229622 37.6328125 34.171875 C36.58826904 34.75042236 35.54372559 35.32896973 34.4675293 35.92504883 C33.36449463 36.52728271 32.26145996 37.1295166 31.125 37.75 C28.86295583 38.99810831 26.601235 40.24680282 24.33984375 41.49609375 C23.24913574 42.09663574 22.15842773 42.69717773 21.03466797 43.31591797 C16.16966191 46.01574193 11.36926417 48.82285458 6.57421875 51.64453125 C4 53 4 53 0 54 C0 36.18 0 18.36 0 0 Z " fill="#0E028D" transform="translate(271,284)"/>
<path d="M0 0 C17.2665558 9.20882976 17.2665558 9.20882976 23.5 12.9375 C24.192146 13.34790527 24.88429199 13.75831055 25.59741211 14.18115234 C27.73412997 15.4499272 29.86756284 16.72404548 32 18 C32.72977051 18.43618652 33.45954102 18.87237305 34.21142578 19.32177734 C38.47873406 21.87382291 42.74129811 24.43362069 47 27 C44.69668953 29.5302926 42.32885152 31.09341989 39.34375 32.75 C38.41199951 33.27118408 37.48024902 33.79236816 36.52026367 34.3293457 C35.52357666 34.88066162 34.52688965 35.43197754 33.5 36 C31.42261031 37.15914108 29.34579682 38.31931534 27.26953125 39.48046875 C26.22361816 40.06489746 25.17770508 40.64932617 24.10009766 41.25146484 C18.614124 44.34569569 13.18367281 47.53654273 7.765625 50.74804688 C7.03214844 51.17794922 6.29867187 51.60785156 5.54296875 52.05078125 C4.90383545 52.42887939 4.26470215 52.80697754 3.60620117 53.1965332 C2 54 2 54 0 54 C0 36.18 0 18.36 0 0 Z " fill="#0F028E" transform="translate(162,225)"/>
<path d="M0 0 C5.53636532 2.21454613 10.76524219 5.14467756 16 8 C16 27.8 16 47.6 16 68 C2 76 2 76 0 76 C0 50.92 0 25.84 0 0 Z " fill="#180C92" transform="translate(142,214)"/>
<path d="M0 0 C1.34624351 14.92502068 1.34624351 14.92502068 -1.37109375 19.11328125 C-3.81722238 20.72972882 -6.30826563 21.83188886 -9 23 C-10.97033791 24.05308409 -12.91151186 25.15133094 -14.85498047 26.25317383 C-17.13676906 27.54194781 -19.43686499 28.79353805 -21.73828125 30.046875 C-25.65430217 32.20858506 -29.47948719 34.49043826 -33.29296875 36.828125 C-34.36345459 37.47716797 -35.43394043 38.12621094 -36.53686523 38.79492188 C-38.65193666 40.08186755 -40.75731039 41.38491079 -42.85180664 42.70507812 C-43.8236792 43.29224609 -44.79555176 43.87941406 -45.796875 44.484375 C-46.65635742 45.01772461 -47.51583984 45.55107422 -48.40136719 46.10058594 C-51.91802999 47.3177398 -53.65553136 46.46954794 -57 45 C-58.82078406 44.01010895 -60.61488021 42.96912852 -62.375 41.875 C-63.24898438 41.33617187 -64.12296875 40.79734375 -65.0234375 40.2421875 C-65.67570312 39.83226562 -66.32796875 39.42234375 -67 39 C-65.69692377 35.09077131 -64.50627597 34.95485969 -60.875 33.125 C-59.68868906 32.51184476 -58.503917 31.8957072 -57.3203125 31.27734375 C-56.64516602 30.92526855 -55.97001953 30.57319336 -55.27441406 30.21044922 C-50.71991333 27.7865318 -46.2390443 25.2299643 -41.75 22.6875 C-40.75758301 22.12619385 -39.76516602 21.5648877 -38.74267578 20.98657227 C-32.71241063 17.56607679 -26.71585262 14.09400654 -20.75 10.5625 C-2.89851078 0 -2.89851078 0 0 0 Z " fill="#12068F" transform="translate(338,203)"/>
<path d="M0 0 C4.04995926 1.6199837 7.50195674 3.32667149 11.26171875 5.484375 C12.14776543 5.99149017 12.14776543 5.99149017 13.05171204 6.5088501 C14.29893371 7.22346186 15.54527187 7.93961762 16.79077148 8.65722656 C18.66268763 9.7357047 20.53711587 10.80969525 22.41210938 11.8828125 C28.62867654 15.44691101 34.80722119 19.06683405 40.94165039 22.77099609 C43.38411824 24.22935016 45.86407469 25.60077763 48.375 26.9375 C54.33319961 30.1510068 60.16981147 33.56090101 66 37 C64.6621001 41.01369969 62.85163712 41.62415565 59.25 43.75 C58.20328125 44.38421875 57.1565625 45.0184375 56.078125 45.671875 C52.56317579 47.18847745 51.58466464 47.01895999 48 46 C45.82543945 44.93115234 45.82543945 44.93115234 43.61328125 43.5859375 C42.76910645 43.07893311 41.92493164 42.57192871 41.05517578 42.04956055 C40.15009277 41.49695557 39.24500977 40.94435059 38.3125 40.375 C36.35891814 39.20041599 34.40445039 38.02730446 32.44921875 36.85546875 C31.4132959 36.23333496 30.37737305 35.61120117 29.31005859 34.97021484 C23.45004213 31.48221271 17.53679342 28.08674796 11.625 24.6875 C10.46000989 24.01682065 9.29505145 23.34608628 8.13012695 22.67529297 C5.42068601 21.11581668 2.71043582 19.5577465 0 18 C0 12.06 0 6.12 0 0 Z " fill="#11058F" transform="translate(162,203)"/>
<path d="M0 0 C0 25.08 0 50.16 0 76 C-3.7895406 75.05261485 -6.37009279 73.82863856 -9.75 71.9375 C-10.73484375 71.38964844 -11.7196875 70.84179688 -12.734375 70.27734375 C-13.48203125 69.85582031 -14.2296875 69.43429687 -15 69 C-15.30220635 61.18575454 -15.53266764 53.37289339 -15.67355824 45.55426025 C-15.74121482 41.92257344 -15.83279899 38.29490184 -15.98071289 34.66552734 C-16.12278087 31.15733092 -16.19983856 27.65297218 -16.23340416 24.14212036 C-16.26886169 22.16238407 -16.370244 20.18418037 -16.47285461 18.20678711 C-16.47592781 14.38631369 -16.34170032 11.58382733 -15 8 C-11.12673919 4.4687591 -5.48536073 0 0 0 Z " fill="#11048E" transform="translate(248,273)"/>
<path d="M0 0 C0 25.08 0 50.16 0 76 C-3.7895406 75.05261485 -6.37009279 73.82863856 -9.75 71.9375 C-10.73484375 71.38964844 -11.7196875 70.84179688 -12.734375 70.27734375 C-13.48203125 69.85582031 -14.2296875 69.43429688 -15 69 C-15.30220635 61.18575454 -15.53266764 53.37289339 -15.67355824 45.55426025 C-15.74121482 41.92257344 -15.83279899 38.29490184 -15.98071289 34.66552734 C-16.12278087 31.15733092 -16.19983856 27.65297218 -16.23340416 24.14212036 C-16.26886169 22.16238407 -16.370244 20.18418037 -16.47285461 18.20678711 C-16.47592781 14.38631369 -16.34170032 11.58382733 -15 8 C-11.12673919 4.4687591 -5.48536073 0 0 0 Z " fill="#11048F" transform="translate(248,151)"/>
<path d="M0 0 C0 25.08 0 50.16 0 76 C-3.49353625 74.6025855 -6.5107484 73.25822028 -9.75 71.4375 C-10.91789062 70.78587891 -10.91789062 70.78587891 -12.109375 70.12109375 C-14 69 -14 69 -15 68 C-15.1619329 66.17259896 -15.25458633 64.33901668 -15.31982422 62.50561523 C-15.36170868 61.33026718 -15.40359314 60.15491913 -15.44674683 58.94395447 C-15.5771288 54.25081161 -15.68224287 49.55763194 -15.75568962 44.8632803 C-15.81221271 41.30102507 -15.89347993 37.74330285 -16.03564453 34.18334961 C-16.93408203 11.14638641 -16.93408203 11.14638641 -13.71105957 5.90313721 C-10.02664727 2.23407545 -5.27025762 0 0 0 Z " fill="#0E018D" transform="translate(357,214)"/>
<path d="M0 0 C3.63 1.98 7.26 3.96 11 6 C12.32 6.66 13.64 7.32 15 8 C15.3022237 15.68353533 15.53268413 23.36645057 15.67355824 31.05458832 C15.74120953 34.62577745 15.83278024 38.19288197 15.98071289 41.76171875 C16.91480556 64.87231761 16.91480556 64.87231761 13.71429443 70.10009766 C10.03054259 73.77384505 5.27204597 76 0 76 C0 50.92 0 25.84 0 0 Z " fill="#0F028E" transform="translate(252,273)"/>
<path d="M0 0 C3.63 1.98 7.26 3.96 11 6 C12.32 6.66 13.64 7.32 15 8 C15.3022237 15.68353533 15.53268413 23.36645057 15.67355824 31.05458832 C15.74120953 34.62577745 15.83278024 38.19288197 15.98071289 41.76171875 C16.91480556 64.87231761 16.91480556 64.87231761 13.71429443 70.10009766 C10.03054259 73.77384505 5.27204597 76 0 76 C0 50.92 0 25.84 0 0 Z " fill="#0F028E" transform="translate(252,151)"/>
<path d="M0 0 C3.21374399 1.37056729 6.29806681 2.94508221 9.375 4.59375 C10.46264648 5.17237793 10.46264648 5.17237793 11.57226562 5.76269531 C20.37768019 10.50210174 28.97929222 15.59657383 37.59375 20.671875 C42.3956926 23.49635096 47.24281016 26.22306302 52.125 28.90625 C52.125 33.85625 52.125 38.80625 52.125 43.90625 C48.17400708 42.32585283 44.89508826 40.71626399 41.25 38.59375 C40.01081006 37.87692367 38.77119432 37.16083313 37.53125 36.4453125 C36.8403125 36.04602539 36.149375 35.64673828 35.4375 35.23535156 C30.88931237 32.62129609 26.31805092 30.04788029 21.75 27.46875 C20.76217529 26.91026367 19.77435059 26.35177734 18.7565918 25.77636719 C14.27676302 23.24472328 9.79441743 20.71800297 5.30078125 18.2109375 C4.57745605 17.80673584 3.85413086 17.40253418 3.10888672 16.98608398 C1.79791367 16.25427262 0.48583698 15.52443272 -0.82763672 14.79711914 C-4.64681573 12.66417351 -8.34663022 10.48942483 -11.875 7.90625 C-11.875 7.24625 -11.875 6.58625 -11.875 5.90625 C-9.828125 4.36328125 -9.828125 4.36328125 -7.125 2.71875 C-6.24328125 2.16832031 -5.3615625 1.61789063 -4.453125 1.05078125 C-1.875 -0.09375 -1.875 -0.09375 0 0 Z " fill="#140890" transform="translate(176.875,192.09375)"/>
<path d="M0 0 C1.8018084 0.98342072 3.58480772 2.00178773 5.3515625 3.046875 C6.36863281 3.645 7.38570312 4.243125 8.43359375 4.859375 C9.48675781 5.48328125 10.53992188 6.1071875 11.625 6.75 C19.34447338 11.31018953 27.10134864 15.75697447 35 20 C35.68578125 20.37060547 36.3715625 20.74121094 37.078125 21.12304688 C38.78001844 22.04264747 40.48368254 22.95896911 42.1875 23.875 C44.105625 24.90625 46.02375 25.9375 48 27 C48 31.95 48 36.9 48 42 C43.71437064 40.57145688 41.07915512 39.63193945 37.45703125 37.3515625 C31.28365891 33.54493776 24.98953496 29.96312673 18.6875 26.375 C17.45924593 25.67459133 16.23105662 24.97406908 15.00292969 24.2734375 C12.52941277 22.8624663 10.05559817 21.4520193 7.58154297 20.04199219 C2.30180736 17.03246645 -2.97398932 14.01604947 -8.25 11 C-9.96352263 10.02080002 -11.6770622 9.04162968 -13.390625 8.0625 C-14.59375 7.375 -15.796875 6.6875 -17 6 C-14.69840954 3.63235676 -12.47613394 1.87579945 -9.625 0.1875 C-8.87476563 -0.27269531 -8.12453125 -0.73289062 -7.3515625 -1.20703125 C-4.16133864 -2.28280441 -3.02234138 -1.39448327 0 0 Z " fill="#140890" transform="translate(181,316)"/>
<path d="M0 0 C1.87204999 0.96769658 3.71696802 1.98923015 5.53515625 3.0546875 C6.58268066 3.6643335 7.63020508 4.27397949 8.70947266 4.90209961 C9.81597168 5.55315674 10.9224707 6.20421387 12.0625 6.875 C13.79748636 7.88644187 15.53247711 8.8978765 17.26794434 9.90849304 C18.44323828 10.59326914 19.61812313 11.27874785 20.79260254 11.96492004 C26.54839595 15.32724637 32.33363231 18.63695081 38.125 21.9375 C39.02484619 22.45103027 39.92469238 22.96456055 40.85180664 23.49365234 C42.90088669 24.66299186 44.95038909 25.83159123 47 27 C47 31.95 47 36.9 47 42 C38.2467296 37.73278068 29.75934817 33.14121697 21.30566406 28.31542969 C18.81810505 26.89622512 16.32710515 25.48317229 13.8359375 24.0703125 C8.54633713 21.06579644 3.26929311 18.03997679 -2 15 C-3.18625977 14.31695801 -3.18625977 14.31695801 -4.39648438 13.62011719 C-6.54050873 12.38063186 -8.67773403 11.13034735 -10.8125 9.875 C-11.44679932 9.50890625 -12.08109863 9.1428125 -12.73461914 8.765625 C-14.19136766 7.90004175 -15.60209152 6.95770689 -17 6 C-17 5.34 -17 4.68 -17 4 C-15.30700116 2.93359148 -13.59476329 1.8976859 -11.875 0.875 C-10.92367188 0.29492188 -9.97234375 -0.28515625 -8.9921875 -0.8828125 C-5.11732135 -2.32956409 -3.78706678 -1.51143155 0 0 Z " fill="#140890" transform="translate(291,257)"/>
<path d="M0 0 C2.47664187 1.0470014 4.78856178 2.18196134 7.11328125 3.53515625 C7.90347656 3.99019531 8.69367188 4.44523438 9.5078125 4.9140625 C10.09949219 5.26339844 10.69117188 5.61273438 11.30078125 5.97265625 C11.30078125 6.63265625 11.30078125 7.29265625 11.30078125 7.97265625 C10.30304688 8.52050781 9.3053125 9.06835938 8.27734375 9.6328125 C-7.46705068 18.3123426 -23.01567717 27.33139788 -38.55078125 36.37890625 C-39.87928101 37.1514978 -39.87928101 37.1514978 -41.23461914 37.93969727 C-42.88342335 38.89909711 -44.5311023 39.86043418 -46.17749023 40.82397461 C-51.58794357 43.97265625 -51.58794357 43.97265625 -52.69921875 43.97265625 C-53.6555891 38.59572962 -53.91573976 34.2709254 -52.69921875 28.97265625 C-49.17972184 25.33239229 -44.93621123 23.43099798 -40.41503906 21.30273438 C-35.35342646 18.82380005 -30.47604003 15.99436273 -25.56509399 13.23217773 C-23.79623919 12.24198064 -22.02191414 11.26252759 -20.24487305 10.28710938 C-19.12765869 9.67287109 -18.01044434 9.05863281 -16.859375 8.42578125 C-15.79348145 7.83990234 -14.72758789 7.25402344 -13.62939453 6.65039062 C-11.06483268 5.18199627 -8.63823192 3.61576839 -6.1953125 1.95703125 C-3.72888686 0.38987048 -3.00194677 -0.03041046 0 0 Z " fill="#13068F" transform="translate(323.69921875,192.02734375)"/>
<path d="M0 0 C1.2684375 0.7734375 1.2684375 0.7734375 2.5625 1.5625 C3.25085938 1.97886719 3.93921875 2.39523437 4.6484375 2.82421875 C6.63894525 4.04296823 8.60579932 5.29040179 10.5625 6.5625 C8.30833534 9.02424954 6.02673107 10.58464123 3.1171875 12.20703125 C2.21718018 12.71218262 1.31717285 13.21733398 0.38989258 13.73779297 C-0.58439697 14.27807129 -1.55868652 14.81834961 -2.5625 15.375 C-3.57352783 15.94105957 -4.58455566 16.50711914 -5.6262207 17.09033203 C-8.89412002 18.91895172 -12.16573212 20.74081255 -15.4375 22.5625 C-18.76041335 24.41872132 -22.08238628 26.27661016 -25.40380859 28.13549805 C-27.48785599 29.30135782 -29.572761 30.46568646 -31.65869141 31.62817383 C-37.86493012 35.09328093 -44.01487556 38.6406374 -50.13012695 42.26416016 C-52.4375 43.5625 -52.4375 43.5625 -53.4375 43.5625 C-54.32871736 38.55187797 -55.16814239 33.45577649 -53.4375 28.5625 C-50.03520909 24.62908222 -44.99885955 22.56999568 -40.3515625 20.44433594 C-37.86699261 19.2996591 -35.50527832 17.97134492 -33.125 16.625 C-32.26777344 16.16480469 -31.41054688 15.70460938 -30.52734375 15.23046875 C-26.3952198 12.99985317 -22.29169745 10.71899368 -18.1875 8.4375 C-17.43041748 8.01734619 -16.67333496 7.59719238 -15.89331055 7.16430664 C-15.16023682 6.75688232 -14.42716309 6.34945801 -13.671875 5.9296875 C-12.96039307 5.53547607 -12.24891113 5.14126465 -11.51586914 4.73510742 C-10.14018696 3.95895312 -8.77440323 3.16496286 -7.41967773 2.3527832 C-2.68080478 -0.48117009 -2.68080478 -0.48117009 0 0 Z " fill="#12068F" transform="translate(324.4375,314.4375)"/>
<path d="M0 0 C2.68304252 0.99081278 4.95512083 2.34781116 7.38671875 3.8515625 C8.27875 4.39941406 9.17078125 4.94726562 10.08984375 5.51171875 C11.10304688 6.14400391 11.10304688 6.14400391 12.13671875 6.7890625 C9.04274136 9.21925616 5.82392221 11.20017333 2.41015625 13.15234375 C1.29511719 13.79236328 0.18007812 14.43238281 -0.96875 15.09179688 C-2.14183724 15.76187606 -3.31501478 16.43179718 -4.48828125 17.1015625 C-11.62045286 21.1845894 -18.7319458 25.28840383 -25.76757812 29.53588867 C-28.24571772 31.01774917 -30.75768812 32.42189563 -33.30078125 33.7890625 C-36.18791523 35.3436731 -39.06917218 36.90379561 -41.93359375 38.5 C-42.92101562 39.04914063 -43.9084375 39.59828125 -44.92578125 40.1640625 C-45.82425781 40.66679687 -46.72273437 41.16953125 -47.6484375 41.6875 C-49.86328125 42.7890625 -49.86328125 42.7890625 -51.86328125 42.7890625 C-52.96392275 37.79661019 -53.27781909 33.73994495 -51.86328125 28.7890625 C-47.91477478 24.63921192 -42.28795435 22.38392093 -37.19384766 19.94482422 C-33.6572047 18.19095163 -30.33911381 16.11994482 -26.98828125 14.0390625 C-21.81263117 10.90584273 -16.57705475 7.92014484 -11.234375 5.078125 C-9.07822129 3.90591623 -7.00923333 2.64656231 -4.92578125 1.3515625 C-1.86328125 -0.2109375 -1.86328125 -0.2109375 0 0 Z " fill="#12058F" transform="translate(213.86328125,255.2109375)"/>
<path d="M0 0 C4.23391586 1.41130529 6.72038203 2.25150263 10.25 4.5 C14.86681673 7.34852776 19.56255142 10.00791292 24.3125 12.625 C32.13612762 16.94374886 39.90560475 21.35169149 47.65551758 25.80126953 C53.07903841 28.91296108 58.52568696 31.97852253 64 35 C64 35.66 64 36.32 64 37 C62.30700116 38.06640852 60.59476329 39.1023141 58.875 40.125 C57.92367187 40.70507812 56.97234375 41.28515625 55.9921875 41.8828125 C53 43 53 43 50.23828125 42.51953125 C45.78613612 40.43040646 41.55681466 38.04309559 37.3125 35.5625 C36.39710449 35.03333984 35.48170898 34.50417969 34.53857422 33.95898438 C31.68955456 32.31081548 28.84477167 30.65548749 26 29 C24.21521576 27.96680503 22.43007142 26.9342318 20.64453125 25.90234375 C17.46187352 24.06275363 14.28082801 22.22044585 11.1015625 20.375 C7.41011133 18.23392368 3.70757465 16.11302408 0 14 C0 9.38 0 4.76 0 0 Z " fill="#140790" transform="translate(271,144)"/>
<path d="M0 0 C0.96097405 4.6055571 1.19327852 8.41968636 0 13 C-3.6249193 16.49650026 -7.84650557 18.43734389 -12.34033203 20.64208984 C-17.79133589 23.42513404 -23.0278695 26.60386308 -28.3125 29.6875 C-31.5378879 31.54175431 -34.76494297 33.3929882 -37.99462891 35.23974609 C-39.97618244 36.40034731 -41.93789841 37.59559972 -43.87646484 38.82666016 C-44.75641113 39.38530762 -45.63635742 39.94395508 -46.54296875 40.51953125 C-47.31020264 41.02202393 -48.07743652 41.5245166 -48.86791992 42.04223633 C-51 43 -51 43 -53.13110352 42.72949219 C-55.46543414 41.81832564 -57.57648973 40.68407207 -59.75 39.4375 C-60.54921875 38.98246094 -61.3484375 38.52742188 -62.171875 38.05859375 C-63.07679688 37.53458984 -63.07679688 37.53458984 -64 37 C-64 36.34 -64 35.68 -64 35 C-49.41238807 26.51586963 -34.77702436 18.14007428 -19.98706055 10.01342773 C-15.38075568 7.47458843 -10.82785102 4.93314757 -6.4140625 2.0703125 C-3 0 -3 0 0 0 Z " fill="#140790" transform="translate(229,144)"/>
<path d="M0 0 C0 4.62 0 9.24 0 14 C-1.65 14.86625 -3.3 15.7325 -5 16.625 C-11.7465417 20.22152532 -18.33953811 24.07703941 -24.9375 27.9375 C-25.98010986 28.54553467 -27.02271973 29.15356934 -28.09692383 29.7800293 C-32.57804852 32.3965722 -37.05179434 35.02065742 -41.484375 37.71875 C-42.12383057 38.10168213 -42.76328613 38.48461426 -43.42211914 38.87915039 C-45.05173561 39.85610896 -46.67277013 40.84734472 -48.29296875 41.83984375 C-51.49914943 43.21392119 -52.74186722 43.13825793 -56 42 C-58.45703125 40.80859375 -58.45703125 40.80859375 -60.8125 39.4375 C-61.60269531 38.98246094 -62.39289063 38.52742188 -63.20703125 38.05859375 C-64.09455078 37.53458984 -64.09455078 37.53458984 -65 37 C-62.55992682 34.27393702 -59.92340749 32.6869603 -56.73046875 30.92578125 C-55.68407227 30.34489746 -54.63767578 29.76401367 -53.55957031 29.16552734 C-52.44678711 28.55402832 -51.33400391 27.9425293 -50.1875 27.3125 C-47.89430521 26.0407721 -45.6013345 24.76864005 -43.30859375 23.49609375 C-42.2088623 22.88749512 -41.10913086 22.27889648 -39.97607422 21.65185547 C-36.552225 19.75146467 -33.14713951 17.82269332 -29.75 15.875 C-28.203125 14.98941406 -28.203125 14.98941406 -26.625 14.0859375 C-24.55364957 12.89624501 -22.48512201 11.7018615 -20.41796875 10.50488281 C-17.53063893 8.83311489 -14.64035037 7.16653894 -11.75 5.5 C-10.81897461 4.95843262 -9.88794922 4.41686523 -8.92871094 3.85888672 C-8.06020508 3.3588916 -7.19169922 2.85889648 -6.296875 2.34375 C-5.12656738 1.66602539 -5.12656738 1.66602539 -3.93261719 0.97460938 C-2 0 -2 0 0 0 Z " fill="#140790" transform="translate(229,266)"/>
<path d="M0 0 C8.12046965 3.89131905 15.93038408 8.04916441 23.61499023 12.73876953 C27.90951048 15.35755543 32.25927856 17.81442409 36.6953125 20.1875 C42.45881728 23.34857118 48.140201 26.65650211 53.82861328 29.95043945 C54.7101709 30.45792725 55.59172852 30.96541504 56.5 31.48828125 C57.2940625 31.94759033 58.088125 32.40689941 58.90625 32.88012695 C61.08931507 34.1234324 61.08931507 34.1234324 64 35 C64 35.66 64 36.32 64 37 C62.0234375 38.54296875 62.0234375 38.54296875 59.375 40.1875 C58.51648438 40.73792969 57.65796875 41.28835938 56.7734375 41.85546875 C53.23488086 43.31574635 51.65625223 43.09504296 48 42 C45.48984797 40.6986539 43.14280759 39.36363054 40.75 37.875 C39.26138185 36.97366441 37.77172427 36.07404417 36.28125 35.17578125 C35.45625 34.67643066 34.63125 34.17708008 33.78125 33.66259766 C28.31160346 30.39290902 22.7754128 27.23669381 17.25 24.0625 C15.0257611 22.78303969 12.80178703 21.50311887 10.578125 20.22265625 C9.62325195 19.67359619 8.66837891 19.12453613 7.68457031 18.55883789 C6.35570801 17.78721313 6.35570801 17.78721313 5 17 C4.07002197 16.50773926 3.14004395 16.01547852 2.18188477 15.50830078 C1.46186279 15.01056152 0.74184082 14.51282227 0 14 C-0.48828125 10.64453125 -0.48828125 10.64453125 -0.3125 6.8125 C-0.24482422 4.90404297 -0.24482422 4.90404297 -0.17578125 2.95703125 C-0.11777344 1.98121094 -0.05976563 1.00539063 0 0 Z " fill="#12068F" transform="translate(271,266)"/>
<path d="M0 0 C2.3359375 1.19140625 2.3359375 1.19140625 4.375 2.5625 C5.06335938 3.01753906 5.75171875 3.47257813 6.4609375 3.94140625 C6.96882813 4.29074219 7.47671875 4.64007813 8 5 C6.27014861 7.01625063 5.06499754 7.97508082 2.5546875 8.9375 C-0.77845378 10.25909538 -2.6135947 11.28120254 -5 14 C-6.60751347 20.14620972 -6.21196153 26.70349561 -6 33 C-12.31782079 31.9836047 -17.76374937 29.9422924 -22 25 C-23.38627972 19.45623754 -22.62486629 13.61117307 -22 8 C-19.46917897 6.45806272 -16.92794722 4.94199516 -14.375 3.4375 C-13.66214844 2.99986328 -12.94929687 2.56222656 -12.21484375 2.11132812 C-7.78912979 -0.46695478 -5.11480537 -1.74368365 0 0 Z " fill="#160A91" transform="translate(164,184)"/>
<path d="M0 0 C0.9590625 0.67675781 0.9590625 0.67675781 1.9375 1.3671875 C2.86046875 1.86476562 3.7834375 2.36234375 4.734375 2.875 C5.70890625 3.40867188 6.6834375 3.94234375 7.6875 4.4921875 C9.16476562 5.30042969 9.16476562 5.30042969 10.671875 6.125 C11.41953125 6.53492188 12.1671875 6.94484375 12.9375 7.3671875 C12.9375 8.3571875 12.9375 9.3471875 12.9375 10.3671875 C10.9844731 11.31866214 8.9987384 12.20341618 7 13.0546875 C2.70773571 15.27966543 2.70773571 15.27966543 0.27099609 19.25585938 C-0.50899338 23.95521506 -0.35833065 28.62820812 -0.0625 33.3671875 C-2.00123142 32.41134782 -3.9384433 31.45242558 -5.875 30.4921875 C-6.95394531 29.95851563 -8.03289062 29.42484375 -9.14453125 28.875 C-12.0625 27.3671875 -12.0625 27.3671875 -15.0625 25.3671875 C-16.20689627 19.49023584 -16.83325161 13.17963954 -15.0625 7.3671875 C-11.98383806 3.19110778 -5.22407243 -1.60284041 0 0 Z " fill="#11058F" transform="translate(267.0625,243.6328125)"/>
<path d="M0 0 C5.64552617 2.12610309 10.72965751 5.07908729 16 8 C16 13.94 16 19.88 16 26 C5.5 31.875 5.5 31.875 1 33 C1 27.72 1 22.44 1 17 C-0.65 16.67 -2.3 16.34 -4 16 C-6.67578125 14.58984375 -6.67578125 14.58984375 -9.3125 12.9375 C-10.19550781 12.38964844 -11.07851562 11.84179688 -11.98828125 11.27734375 C-12.65214844 10.85582031 -13.31601563 10.43429688 -14 10 C-11.72402354 7.50447597 -9.39278822 5.93377014 -6.4375 4.3125 C-5.65246094 3.87550781 -4.86742187 3.43851563 -4.05859375 2.98828125 C-2 2 -2 2 0 2 C0 1.34 0 0.68 0 0 Z " fill="#12058F" transform="translate(232,243)"/>
<path d="M0 0 C8.53718211 4.38105107 8.53718211 4.38105107 10.23486328 8.68017578 C11.32228972 13.72523482 11.32869432 18.88997702 9.47265625 23.75 C5.32679674 28.3557479 0.39056053 30.33780882 -5.52734375 31.75 C-5.47191406 30.44804687 -5.41648437 29.14609375 -5.359375 27.8046875 C-5.20604251 20.1984349 -5.20604251 20.1984349 -6.52734375 12.75 C-9.23635692 10.02800434 -11.35438227 9.02182382 -14.9609375 7.78515625 C-17.52734375 6.75 -17.52734375 6.75 -18.875 4.62109375 C-19.09027344 4.00363281 -19.30554688 3.38617188 -19.52734375 2.75 C-18.18822185 1.87243485 -16.83003384 1.02393533 -15.46484375 0.1875 C-14.71074219 -0.28816406 -13.95664062 -0.76382813 -13.1796875 -1.25390625 C-8.46840393 -3.02323955 -4.60291136 -1.63115353 0 0 Z " fill="#11048F" transform="translate(347.52734375,185.25)"/>
<path d="M0 0 C4.1015625 2.24609375 4.1015625 2.24609375 8.203125 4.4921875 C9.58757812 5.23855469 9.58757812 5.23855469 11 6 C12.01320312 6.62261719 12.01320312 6.62261719 13.046875 7.2578125 C15.79176363 8.30087018 17.21316932 7.89591446 20 7 C22.0982201 5.87681928 24.16018137 4.68411208 26.1875 3.4375 C31.79678068 0 31.79678068 0 34 0 C34 4.95 34 9.9 34 15 C31.42474285 16.53617083 28.841326 18.05388201 26.25 19.5625 C25.52039063 20.00013672 24.79078125 20.43777344 24.0390625 20.88867188 C23.33007812 21.29794922 22.62109375 21.70722656 21.890625 22.12890625 C21.24125977 22.51119385 20.59189453 22.89348145 19.92285156 23.28735352 C17.49017826 24.18894993 16.40809759 23.89409564 14 23 C11.54604297 21.68696643 9.14621869 20.34747014 6.75 18.9375 C6.1003125 18.56044922 5.450625 18.18339844 4.78125 17.79492188 C3.18494909 16.86765885 1.59212471 15.93441544 0 15 C0 10.05 0 5.1 0 0 Z " fill="#12068F" transform="translate(233,346)"/>
<path d="M0 0 C1.44632813 0.74056641 1.44632813 0.74056641 2.921875 1.49609375 C4.19780852 2.14344237 5.47385621 2.79056599 6.75 3.4375 C7.38421875 3.76298828 8.0184375 4.08847656 8.671875 4.42382812 C10.43267001 5.31339644 12.21579996 6.15835812 14 7 C14.66257813 7.3196875 15.32515625 7.639375 16.0078125 7.96875 C19.51417835 8.02375182 22.23990028 5.86196941 25.125 4.0625 C31.78505843 0 31.78505843 0 34 0 C34 4.95 34 9.9 34 15 C31.29817708 16.46484375 28.59635417 17.9296875 25.89453125 19.39453125 C22.99522231 20.92324844 22.99522231 20.92324844 20.51171875 22.82421875 C18 24 18 24 15.0859375 23.35546875 C14.06757813 22.90816406 13.04921875 22.46085937 12 22 C10.94039062 21.60425781 9.88078125 21.20851562 8.7890625 20.80078125 C5.28728404 19.15364842 2.73435202 17.76039347 0 15 C-1.0563421 9.81432058 -0.72435305 5.21131778 0 0 Z " fill="#12068F" transform="translate(233,224)"/>
<path d="M0 0 C0.99 0.33 1.98 0.66 3 1 C2.67 1.66 2.34 2.32 2 3 C1.90785369 5.30787874 1.88250603 7.6185085 1.88647461 9.92822266 C1.88632858 10.64052536 1.88618256 11.35282806 1.8860321 12.0867157 C1.88672989 14.44586206 1.89451603 16.80492989 1.90234375 19.1640625 C1.9042084 20.79788164 1.90563208 22.43170134 1.90663147 24.06552124 C1.91045291 28.3694818 1.92028002 32.67340871 1.93133545 36.97735596 C1.94155758 41.36771184 1.94613081 45.75807315 1.95117188 50.1484375 C1.96190261 58.76564046 1.97897457 67.38281604 2 76 C1.34 76 0.68 76 0 76 C0 50.92 0 25.84 0 0 Z " fill="#372CA1" transform="translate(361,214)"/>
</svg>
